<?xml version="1.0" encoding="utf-8"?>
<!-- Generator: Adobe Illustrator 27.8.0, SVG Export Plug-In . SVG Version: 6.00 Build 0)  -->
<svg version="1.1" id="Layer_1" xmlns="http://www.w3.org/2000/svg" xmlns:xlink="http://www.w3.org/1999/xlink" x="0px" y="0px"
	 width="200px" height="200px" viewBox="0 0 200 200" style="enable-background:new 0 0 200 200;" xml:space="preserve">
<style type="text/css">
	.st0{fill:#356597;stroke:#356597;stroke-miterlimit:10;}
</style>
<g>
	<path class="st0" d="M56.7,93.3c-0.5-25.6,20.9-48.8,42.4-51c15.6-1.7,28.1,4.2,38.4,15.5c20.1,22.4,18.3,53.8-4.3,74.9
		c-2.5,2.3-4,4.3-3.5,7.8c0.3,1.8-0.3,3.2-2.5,3.5c-14.8,2.2-29.6,4.5-44.2,7c-2.7,0.5-3.3-0.5-3.2-2.8c1-8-2.3-13.6-8.1-19.4
		C62.2,119,56.9,107.1,56.7,93.3z M59.2,99.6c0.2,7.6,5.8,19.3,15.5,28.7c5.2,5,8.5,9.8,7.5,17.1c-0.3,2.2,0.7,3,2.8,2.7
		c13.3-2.2,26.7-4.3,40.2-6.5c1.5-0.2,2.5-0.7,2.2-2.3c-0.8-3.7,1.5-5.6,4-8c24.3-22.6,23.4-57.2-2-77.9c-11.1-9-23.8-11.5-37.4-7
		C73,52.6,59,72.7,59.2,99.6z"/>
	<path class="st0" d="M105.9,195.5c-2,0-3.8,0-5.8,0c-6.3,0-6.5-0.2-6.8-6.1c0-1.7-0.7-2.3-2-3.2c-2.8-1.5-5.2-3.7-7-6.3
		c-1.2-1.5-1.5-2.7,1.2-3c13.8-2,27.6-4.2,41.4-6.1c2.7-0.3,3.5,0.2,2.3,3.2c-1.5,4-3.7,7.5-7,10c-2.3,1.8-3.3,3.8-2.8,6.6
		c0.7,4-1.7,5.2-5,5.2C111.3,195.5,108.5,195.5,105.9,195.5z M125.5,173.7c-12.8,1.3-25.4,3.7-38.4,5.6c6.6,7.8,20.6,10.5,28.9,5.8
		c4.5-2.5,8.3-5.8,9.8-11c0.2-0.2,0.3-0.3,0.3-0.5C126,173.2,125.6,173.2,125.5,173.7z M105.5,194c4-0.2,6.8-0.3,9.6-1.2
		c2.3-0.7,1.7-2.7,1.3-4.2c-0.3-1.7-1.7-0.7-2.7-0.3c-5.2,1.5-10.3,1.5-15.5,0.5c-1-0.2-2.7-1.2-2.7,1.2c0,1.5,0,2.7,2,3
		C100.5,193.3,103.5,193.8,105.5,194z"/>
	<path class="st0" d="M130.1,150.4c1,3.3-0.5,4.3-3.7,4.7c-14.6,2.2-29.2,4.5-43.7,6.8c-1.8,0.3-2.8,0-3-2.2c-0.5-5.6-0.3-6.1,5.3-7
		c13.5-2.2,27.1-4.2,40.5-6.5C129.3,145.8,131.3,146.1,130.1,150.4z M84.4,159.1c13.8-2.2,27.6-4.3,41.2-6.5
		c1.3-0.2,2.3-0.7,2.2-2.3c-0.2-2.2-1.7-1.5-2.8-1.3c-5.3,0.8-10.6,1.7-16,2.5c-8.3,1.3-16.6,2.7-24.9,4c-1.7,0.2-2.2,1-2,2.5
		C82.4,159.2,83.4,159.1,84.4,159.1z"/>
	<path class="st0" d="M130,161.7c1.2,4.5-0.3,5.5-3.7,5.8c-14.3,1.8-28.7,4-43,6.1c-2.7,0.5-3.3-1-3.2-2.8c0.2-1.8-2-4.7,2.2-5.3
		c15.1-2.2,30.2-4.7,45.4-7.1C132.1,157.6,129.6,161.1,130,161.7z M84.6,171c13.5-2,27.4-4,41.2-6c1.5-0.2,2.2-0.8,2-2.5
		c-0.2-2-1.7-1.5-2.8-1.3c-10.1,1.5-20.1,3-30.2,4.7c-3.5,0.5-7.1,1-10.6,1.7c-1.2,0.2-2.2,0.5-2,2.2
		C82.4,170.9,82.9,171.5,84.6,171z"/>
	<path class="st0" d="M188.3,43.1c-0.2,1-1,1.3-1.8,1.8c-9.5,5.2-18.9,10.3-28.4,15.5c-0.8,0.5-1.8,1.3-2.5,0.3
		c-1-1.5,0.7-1.8,1.5-2.3c9.5-5.2,18.9-10.3,28.2-15.5c0.7-0.3,1.5-0.5,2.3-0.7C187.8,42.3,188.1,42.8,188.3,43.1z"/>
	<path class="st0" d="M12.8,42.4c0.7,0.3,1.5,0.7,2.2,1.2c8.8,4.8,17.6,9.6,26.6,14.6c1,0.5,3,1,2.2,2.3c-0.7,1.3-2.2,0.2-3.3-0.3
		c-8.8-4.8-17.8-9.6-26.6-14.5c-1-0.5-2.5-1-2-2.7C12,42.6,12.2,42.1,12.8,42.4z"/>
	<path class="st0" d="M63,4.4c1.8-0.2,2,1,2.5,1.8c4,9,8.1,17.8,12.1,26.7c0.3,0.8,1.2,1.8-0.2,2.5c-1.3,0.7-1.7-0.7-2-1.5
		C71.3,24.8,67.2,15.7,63,6.4C62.5,5.6,62,4.7,63,4.4z"/>
	<path class="st0" d="M136.6,5.4c-0.3,0.7-0.7,1.5-1,2.2C131.8,16,128,24.7,124,33.1c-0.5,1-0.7,3-2.2,2.3c-1.7-0.7-0.3-2.2,0.2-3.2
		c3.8-8.6,7.8-17.3,11.6-25.9c0.5-1,0.8-2.2,2.3-1.8C136.3,4.6,136.8,4.7,136.6,5.4z"/>
</g>
</svg>
